<svg width="28" height="28" viewBox="0 0 28 28" fill="none" xmlns="http://www.w3.org/2000/svg">
<g clip-path="url(#clip0_1060_662)">
<path d="M10 19.9369C10.2855 19.4294 10.5713 18.922 10.8602 18.4087C10.696 18.2915 10.5344 18.1763 10.3657 18.0556C10.4139 17.9682 10.45 17.9028 10.4888 17.8324C10.6724 17.9287 10.8434 18.0188 11.0297 18.1167C11.2768 17.6831 11.5155 17.2677 11.7511 16.8508C12.8698 14.8701 13.9728 12.8801 15.1116 10.9114C15.6958 9.90153 16.329 8.91602 17.1387 8.07284C17.4633 7.73519 17.857 7.46599 18.2216 7.16894C18.2698 7.12949 18.3318 7.10629 18.3899 7.08114C18.5492 7.01191 18.7126 6.94345 18.8723 7.07341C19.0342 7.20569 19.0171 7.40178 18.9586 7.55572C18.7997 7.97344 18.6397 8.39696 18.4207 8.78336C18.0068 9.51359 17.3929 10.0493 16.6818 10.472C16.6274 10.5041 16.5731 10.5355 16.5062 10.5741C16.7088 10.9323 16.5639 11.2433 16.3439 11.5094C16.0181 11.9031 15.657 12.2659 15.3149 12.6457C14.511 13.5376 13.8356 14.5239 13.2411 15.5698C13.216 15.6142 13.1955 15.6618 13.175 15.7086C13.1708 15.7179 13.1761 15.7318 13.1773 15.7496C13.5121 15.4352 13.8356 15.1138 14.1769 14.8136C14.7155 14.3402 15.2872 13.9136 15.9752 13.6881C16.1721 13.6235 16.38 13.5794 16.586 13.5616C17.3637 13.4943 17.8187 14.0052 17.7073 14.7958C17.618 15.4294 17.3044 15.9411 16.8783 16.3897C16.0113 17.3025 14.9565 17.9005 13.7577 18.2115C13.0807 18.3871 12.3821 18.4814 11.6892 18.587C11.506 18.6149 11.3995 18.6926 11.3227 18.8415C11.2878 18.9092 11.2498 18.9835 11.2437 19.057C11.2152 19.4178 10.978 19.5938 10.6884 19.7257C10.4831 19.8193 10.276 19.9083 10.0696 19.9995C10.0464 19.9786 10.0232 19.9574 10 19.9365V19.9369ZM11.7241 18.2142C11.7964 18.2142 11.8268 18.2173 11.8564 18.2138C12.5493 18.1287 13.2278 17.9809 13.8785 17.7195C14.9949 17.2704 15.9132 16.57 16.491 15.48C16.6426 15.1942 16.7171 14.8546 16.7707 14.5301C16.8194 14.2373 16.6346 14.0637 16.3423 14.0853C16.1759 14.0977 15.9984 14.1317 15.8513 14.2079C15.5031 14.3882 15.1545 14.5765 14.8341 14.8028C13.8835 15.4727 13.1077 16.3286 12.406 17.2561C12.1761 17.5601 11.9628 17.8777 11.7238 18.2149L11.7241 18.2142ZM16.0675 10.4183C17.0611 9.72245 17.884 8.88314 18.2691 7.68142C17.4431 8.51609 16.7171 9.4343 16.0675 10.4183ZM15.0101 12.1089L15.0367 12.1209C15.2963 11.8664 15.562 11.6177 15.8144 11.3558C16.1413 11.0158 16.1394 10.9965 15.96 10.5181C15.6369 11.0595 15.3237 11.5844 15.0105 12.1093L15.0101 12.1089Z" fill="#727272"/>
</g>
<defs>
<clipPath id="clip0_1060_662">
<rect width="9" height="13" fill="white" transform="translate(10 7)"/>
</clipPath>
</defs>
</svg>
