<svg width="28" height="28" viewBox="0 0 28 28" fill="none" xmlns="http://www.w3.org/2000/svg">
<path d="M7 13.5C7 10.2125 7 8.56878 7.90796 7.46243C8.07418 7.25989 8.25989 7.07418 8.46243 6.90796C9.56878 6 11.2125 6 14.5 6V6C17.7875 6 19.4312 6 20.5376 6.90796C20.7401 7.07418 20.9258 7.25989 21.092 7.46243C22 8.56878 22 10.2125 22 13.5V13.5C22 16.7875 22 18.4312 21.092 19.5376C20.9258 19.7401 20.7401 19.9258 20.5376 20.092C19.4312 21 17.7875 21 14.5 21V21C11.2125 21 9.56878 21 8.46243 20.092C8.25989 19.9258 8.07418 19.7401 7.90796 19.5376C7 18.4312 7 16.7875 7 13.5V13.5Z" stroke="#727272" stroke-width="1.5"/>
<circle cx="18" cy="9.5" r="1" fill="#727272"/>
<circle cx="14.5013" cy="13.4993" r="2.58333" stroke="#727272" stroke-width="1.5"/>
</svg>
