<svg width="28" height="28" viewBox="0 0 28 28" fill="none" xmlns="http://www.w3.org/2000/svg">
<path d="M21.9977 9.98354V17.0135C21.968 17.1752 21.9393 17.3372 21.9084 17.4987C21.5301 19.4659 19.7055 20.9888 17.7033 20.995C15.5652 21.0015 13.4269 21.0023 11.2891 20.9903C10.9566 20.9886 10.6155 20.9387 10.2938 20.8538C8.30927 20.3294 7.00089 18.6142 7.00059 16.5624C7.0003 14.5171 6.99854 12.4718 7.00294 10.4261C7.00353 10.1737 7.01468 9.91663 7.06252 9.66951C7.40502 7.90475 8.44222 6.74282 10.1459 6.18196C10.4159 6.09304 10.7041 6.05929 10.9838 6C13.3271 6 15.6706 6 18.0138 6C18.113 6.01878 18.2125 6.03727 18.3114 6.05664C20.09 6.40326 21.2613 7.44045 21.8189 9.16207C21.9049 9.42738 21.9393 9.70943 21.9974 9.98384L21.9977 9.98354ZM14.4987 7.46422C13.4882 7.46422 12.478 7.46276 11.4675 7.46569C11.2973 7.46628 11.1247 7.47332 10.9571 7.49974C9.50377 7.73071 8.46746 8.9487 8.46511 10.4308C8.46218 12.4759 8.46218 14.5212 8.46746 16.5662C8.46805 16.7887 8.49094 17.0162 8.54083 17.2328C8.8578 18.6095 10.0206 19.5305 11.4385 19.5325C13.4788 19.5355 15.5189 19.534 17.5592 19.5317C17.7197 19.5317 17.882 19.5229 18.0402 19.4973C19.498 19.2614 20.5296 18.0501 20.5323 16.5659C20.5358 14.5209 20.5384 12.4756 20.5273 10.4305C20.5255 10.1326 20.4797 9.82477 20.3949 9.5392C20.0257 8.29862 18.8969 7.47156 17.588 7.4651C16.5581 7.45982 15.5283 7.46393 14.4984 7.46393L14.4987 7.46422Z" fill="#727272"/>
<path d="M16.0701 11.0471C15.7528 10.9925 15.4461 10.9399 15.1271 10.8851C15.1271 10.5616 15.1241 10.245 15.1324 9.92886C15.1332 9.90128 15.2087 9.85344 15.2503 9.85256C15.5576 9.8461 15.8655 9.84904 16.1728 9.84904C16.8513 9.84904 17.5299 9.84904 18.2084 9.84904H18.3998C18.3998 10.1889 18.4027 10.5144 18.3945 10.8393C18.3939 10.8666 18.3214 10.9053 18.2768 10.9159C18.074 10.9637 17.8695 11.0036 17.6511 11.0494V11.2416C17.6511 13.1505 17.6493 15.0591 17.6546 16.9679C17.6549 17.1191 17.6135 17.1558 17.4671 17.1525C16.9987 17.1429 16.5297 17.1449 16.0613 17.152C15.9483 17.1537 15.8872 17.1141 15.8274 17.0219C14.8979 15.5909 13.9646 14.1622 13.0321 12.7329C13.0031 12.6883 12.9732 12.6445 12.9247 12.5717V15.9539C13.2294 16.0059 13.5393 16.059 13.8595 16.1139V17.1352H10.6079V16.1148C10.8492 16.0616 11.0898 16.0085 11.334 15.9545V11.0476C11.0907 10.9942 10.85 10.9414 10.6035 10.8871V9.85843C10.6511 9.8552 10.6974 9.84933 10.7435 9.84933C11.4954 9.84874 12.2471 9.8508 12.999 9.84669C13.0999 9.8461 13.1563 9.87956 13.2088 9.96408C14.1231 11.4283 15.0402 12.8902 15.9568 14.3529C15.9876 14.402 16.0193 14.4507 16.0698 14.5293V11.0474L16.0701 11.0471Z" fill="#727272"/>
</svg>
